<?xml version="1.0" encoding="utf-8"?>
<!-- Generator: Adobe Illustrator 22.0.1, SVG Export Plug-In . SVG Version: 6.00 Build 0)  -->
<svg version="1.1" id="Слой_1" xmlns="http://www.w3.org/2000/svg" xmlns:xlink="http://www.w3.org/1999/xlink" x="0px" y="0px"
	 viewBox="0 0 500.5 503.1" style="enable-background:new 0 0 500.5 503.1;" xml:space="preserve">
<style type="text/css">
	.st0{fill:#FF9900;}
	.st1{fill:#333333;}
</style>
<path class="st0" d="M394.9,395.7c-33.5,43-85.7,70.8-144.4,70.8H250c-59-1-111.5-28.5-144.8-72L250,250.2L394.9,395.7z"/>
<path class="st1" d="M467.4,124c-22.1-38.5-52.1-68.7-89.9-90.8C339.6,11.1,297.4,0,250.7,0c-46.6,0-89.2,11.1-127.6,33.2
	C84.6,55.3,54.5,85.5,32.7,124C10.9,162.5,0,205.3,0,252.5c0,5.8,0.2,11.6,0.5,17.3c0,0.1,0,0.2,0,0.3c0.3,5.6,0.8,11.1,1.4,16.5
	c0,0.2,0,0.4,0.1,0.7c0.6,5.2,1.3,10.3,2.2,15.4c0.1,0.5,0.2,1.1,0.3,1.6c0.8,4.5,1.7,9,2.7,13.4c0.3,1.3,0.6,2.6,0.9,4
	c0.8,3.3,1.7,6.6,2.7,9.9c4.9,17.2,11.4,33.7,19.7,49.5l0.8,0.3c0.2,0.4,0.4,0.7,0.6,1.1c21.2,38.2,50.9,68,89,89.5
	c38.2,21.5,81.4,32.2,129.9,32.2c48.4,0,91.6-10.7,129.5-32.2c9.8-5.6,19-11.7,27.7-18.4v1.6c0,13.3,4.4,24.4,13.2,33.2
	c8.8,8.8,19.8,13.2,33.2,13.2c13.3,0,24.4-4.4,33.2-13.2c8.8-8.8,13.2-19.8,13.2-33.2V252.5C500.5,205.3,489.5,162.5,467.4,124z
	 M250.3,427.9c-97.1,0-175.8-78.7-175.8-175.8c0-97.1,78.7-175.8,175.8-175.8S426.1,155,426.1,252.1
	C426.1,349.2,347.4,427.9,250.3,427.9z"/>
</svg>
